<mxfile host="app.diagrams.net" modified="2021-05-24T15:59:18.488Z" agent="5.0 (Windows NT 10.0; Win64; x64) AppleWebKit/537.36 (KHTML, like Gecko) Chrome/90.0.4430.212 Safari/537.36" etag="LrVLMjjfFeYeu7RPJyfi" version="14.7.0" type="github">
  <diagram id="I-01opuqxf6GvvMw_x0U" name="Page-1">
    <mxGraphModel dx="1197" dy="681" grid="1" gridSize="10" guides="1" tooltips="1" connect="1" arrows="1" fold="1" page="1" pageScale="1" pageWidth="850" pageHeight="1100" background="#F1FAEE" math="0" shadow="0">
      <root>
        <mxCell id="0" />
        <mxCell id="1" parent="0" />
        <mxCell id="VPX5gsikIDRtzFNMlh-B-8" value="" style="edgeStyle=orthogonalEdgeStyle;rounded=0;orthogonalLoop=1;jettySize=auto;html=1;labelBackgroundColor=#F1FAEE;strokeColor=#457B9D;fontColor=#1D3557;" edge="1" parent="1" source="VPX5gsikIDRtzFNMlh-B-1" target="VPX5gsikIDRtzFNMlh-B-2">
          <mxGeometry relative="1" as="geometry" />
        </mxCell>
        <mxCell id="VPX5gsikIDRtzFNMlh-B-1" value="Start" style="ellipse;whiteSpace=wrap;html=1;fillColor=#A8DADC;strokeColor=#457B9D;fontColor=#1D3557;" vertex="1" parent="1">
          <mxGeometry x="320" y="40" width="160" height="40" as="geometry" />
        </mxCell>
        <mxCell id="VPX5gsikIDRtzFNMlh-B-9" value="" style="edgeStyle=orthogonalEdgeStyle;rounded=0;orthogonalLoop=1;jettySize=auto;html=1;labelBackgroundColor=#F1FAEE;strokeColor=#457B9D;fontColor=#1D3557;" edge="1" parent="1" source="VPX5gsikIDRtzFNMlh-B-2" target="VPX5gsikIDRtzFNMlh-B-3">
          <mxGeometry relative="1" as="geometry" />
        </mxCell>
        <mxCell id="VPX5gsikIDRtzFNMlh-B-2" value="Gas Sensing" style="rounded=0;whiteSpace=wrap;html=1;fillColor=#A8DADC;strokeColor=#457B9D;fontColor=#1D3557;" vertex="1" parent="1">
          <mxGeometry x="320" y="120" width="160" height="40" as="geometry" />
        </mxCell>
        <mxCell id="VPX5gsikIDRtzFNMlh-B-10" value="" style="edgeStyle=orthogonalEdgeStyle;rounded=0;orthogonalLoop=1;jettySize=auto;html=1;labelBackgroundColor=#F1FAEE;strokeColor=#457B9D;fontColor=#1D3557;" edge="1" parent="1" source="VPX5gsikIDRtzFNMlh-B-3" target="VPX5gsikIDRtzFNMlh-B-4">
          <mxGeometry relative="1" as="geometry" />
        </mxCell>
        <mxCell id="VPX5gsikIDRtzFNMlh-B-14" style="edgeStyle=orthogonalEdgeStyle;rounded=0;orthogonalLoop=1;jettySize=auto;html=1;exitX=1;exitY=0.5;exitDx=0;exitDy=0;entryX=1;entryY=0.5;entryDx=0;entryDy=0;labelBackgroundColor=#F1FAEE;strokeColor=#457B9D;fontColor=#1D3557;" edge="1" parent="1" source="VPX5gsikIDRtzFNMlh-B-3" target="VPX5gsikIDRtzFNMlh-B-1">
          <mxGeometry relative="1" as="geometry" />
        </mxCell>
        <mxCell id="VPX5gsikIDRtzFNMlh-B-3" value="Gas Concentration &lt;br&gt;Greater than 200ppm" style="rhombus;whiteSpace=wrap;html=1;fillColor=#A8DADC;strokeColor=#457B9D;fontColor=#1D3557;" vertex="1" parent="1">
          <mxGeometry x="320" y="200" width="160" height="80" as="geometry" />
        </mxCell>
        <mxCell id="VPX5gsikIDRtzFNMlh-B-11" value="" style="edgeStyle=orthogonalEdgeStyle;rounded=0;orthogonalLoop=1;jettySize=auto;html=1;labelBackgroundColor=#F1FAEE;strokeColor=#457B9D;fontColor=#1D3557;" edge="1" parent="1" source="VPX5gsikIDRtzFNMlh-B-4" target="VPX5gsikIDRtzFNMlh-B-5">
          <mxGeometry relative="1" as="geometry" />
        </mxCell>
        <mxCell id="VPX5gsikIDRtzFNMlh-B-4" value="Buzzer activated" style="shape=parallelogram;perimeter=parallelogramPerimeter;whiteSpace=wrap;html=1;fixedSize=1;fillColor=#A8DADC;strokeColor=#457B9D;fontColor=#1D3557;" vertex="1" parent="1">
          <mxGeometry x="320" y="320" width="160" height="40" as="geometry" />
        </mxCell>
        <mxCell id="VPX5gsikIDRtzFNMlh-B-12" value="" style="edgeStyle=orthogonalEdgeStyle;rounded=0;orthogonalLoop=1;jettySize=auto;html=1;labelBackgroundColor=#F1FAEE;strokeColor=#457B9D;fontColor=#1D3557;" edge="1" parent="1" source="VPX5gsikIDRtzFNMlh-B-5" target="VPX5gsikIDRtzFNMlh-B-6">
          <mxGeometry relative="1" as="geometry" />
        </mxCell>
        <mxCell id="VPX5gsikIDRtzFNMlh-B-5" value="Buzzer deactivate &lt;br&gt;through App" style="shape=parallelogram;perimeter=parallelogramPerimeter;whiteSpace=wrap;html=1;fixedSize=1;fillColor=#A8DADC;strokeColor=#457B9D;fontColor=#1D3557;" vertex="1" parent="1">
          <mxGeometry x="320" y="400" width="160" height="40" as="geometry" />
        </mxCell>
        <mxCell id="VPX5gsikIDRtzFNMlh-B-13" value="" style="edgeStyle=orthogonalEdgeStyle;rounded=0;orthogonalLoop=1;jettySize=auto;html=1;labelBackgroundColor=#F1FAEE;strokeColor=#457B9D;fontColor=#1D3557;" edge="1" parent="1" source="VPX5gsikIDRtzFNMlh-B-6" target="VPX5gsikIDRtzFNMlh-B-7">
          <mxGeometry relative="1" as="geometry" />
        </mxCell>
        <mxCell id="VPX5gsikIDRtzFNMlh-B-15" style="edgeStyle=orthogonalEdgeStyle;rounded=0;orthogonalLoop=1;jettySize=auto;html=1;exitX=1;exitY=0.5;exitDx=0;exitDy=0;entryX=1;entryY=0.5;entryDx=0;entryDy=0;labelBackgroundColor=#F1FAEE;strokeColor=#457B9D;fontColor=#1D3557;" edge="1" parent="1" source="VPX5gsikIDRtzFNMlh-B-6" target="VPX5gsikIDRtzFNMlh-B-4">
          <mxGeometry relative="1" as="geometry">
            <mxPoint x="520" y="340" as="targetPoint" />
            <Array as="points">
              <mxPoint x="520" y="520" />
              <mxPoint x="520" y="340" />
            </Array>
          </mxGeometry>
        </mxCell>
        <mxCell id="VPX5gsikIDRtzFNMlh-B-6" value="Gas Concentration &lt;br&gt;still High" style="rhombus;whiteSpace=wrap;html=1;fillColor=#A8DADC;strokeColor=#457B9D;fontColor=#1D3557;" vertex="1" parent="1">
          <mxGeometry x="320" y="480" width="160" height="80" as="geometry" />
        </mxCell>
        <mxCell id="VPX5gsikIDRtzFNMlh-B-7" value="Stop" style="ellipse;whiteSpace=wrap;html=1;fillColor=#A8DADC;strokeColor=#457B9D;fontColor=#1D3557;" vertex="1" parent="1">
          <mxGeometry x="320" y="600" width="160" height="40" as="geometry" />
        </mxCell>
        <mxCell id="VPX5gsikIDRtzFNMlh-B-16" value="No" style="text;html=1;strokeColor=none;fillColor=none;align=center;verticalAlign=middle;whiteSpace=wrap;rounded=0;fontColor=#1D3557;" vertex="1" parent="1">
          <mxGeometry x="500" y="140" width="40" height="20" as="geometry" />
        </mxCell>
        <mxCell id="VPX5gsikIDRtzFNMlh-B-17" value="Yes" style="text;html=1;strokeColor=none;fillColor=none;align=center;verticalAlign=middle;whiteSpace=wrap;rounded=0;fontColor=#1D3557;" vertex="1" parent="1">
          <mxGeometry x="400" y="280" width="40" height="20" as="geometry" />
        </mxCell>
        <mxCell id="VPX5gsikIDRtzFNMlh-B-18" value="Yes" style="text;html=1;strokeColor=none;fillColor=none;align=center;verticalAlign=middle;whiteSpace=wrap;rounded=0;fontColor=#1D3557;" vertex="1" parent="1">
          <mxGeometry x="520" y="420" width="40" height="20" as="geometry" />
        </mxCell>
        <mxCell id="VPX5gsikIDRtzFNMlh-B-19" value="No" style="text;html=1;strokeColor=none;fillColor=none;align=center;verticalAlign=middle;whiteSpace=wrap;rounded=0;fontColor=#1D3557;" vertex="1" parent="1">
          <mxGeometry x="400" y="570" width="40" height="20" as="geometry" />
        </mxCell>
      </root>
    </mxGraphModel>
  </diagram>
</mxfile>
